<svg xmlns="http://www.w3.org/2000/svg" viewBox="0 0 696.34 501"><defs><style>.cls-1{fill:#fff}</style></defs><g id="Layer_2" data-name="Layer 2"><g id="Layer_1-2" data-name="Layer 1"><polygon points="662.18 175.46 666.08 190.04 670.88 188.75 666.98 174.17 670.66 173.18 669.53 168.97 657.34 172.23 658.47 176.45 662.18 175.46" class="cls-1"/><polygon points="691.3 163.13 685.1 164.79 684.73 178.15 684.68 178.16 677.63 166.8 671.46 168.45 676.5 187.25 680.92 186.06 676.95 171.85 684.83 185.01 688 184.16 688.23 168.97 688.3 169 691.92 183.11 696.34 181.93 691.3 163.13" class="cls-1"/><path d="M269.82,279.2l-18.41-68.73c-3.79-14.15,1.17-24.39,23.35-30.57L264.7,142.39c-12.62,3.38-21.24,9.22-25.17,20.75-.18.54-.35,1.1-.52,1.67l-2.71-10.24-37.16,10,33.4,124.66Z" class="cls-1"/><path d="M147.73,311.91l-18.48-69c-4.39-16.4-.17-26.68,14-30.47,12.81-3.43,21,2.07,26.26,21.61l18,67.16,37.28-10-20.64-77c-9.33-34.81-32.32-46.95-60.17-39.48-17.07,4.57-28.38,16.26-33.57,32.82-11.65-12-25.72-16.94-41.9-12.6-15.94,4.27-26.28,13.3-29.67,26.72l-.44.12-3.55-13.25L0,217.89,33.4,342.55l37.29-10-18-67.16c-4.63-17.29-.65-28.47,14-32.39,12.81-3.43,21,4,25.39,20.17l18.41,68.72Z" class="cls-1"/><path d="M226.93,298.73l-37.28,10,3.13,11.68-.45.12c-8.65-8-22.63-10.79-38.8-6.46-35.94,9.63-54.9,45.77-44.67,83.95,10,37.51,43.85,58.54,80.23,48.79,15.28-4.09,27.4-14.56,29.82-28l1,3.6c6.08,22.68-2.07,38.11-20.94,43.16-9.2,2.47-18.36,1.55-25.09-6.52l-43.13,11.56c9.53,23,37.79,36.81,73.06,27.37,31.21-8.37,52.15-28.18,56.5-47.88,2.2-9.74,1-23.14-3.5-40Zm-42.67,112c-18,4.82-33.79-6.59-38.48-24.1-4.57-17.08,4.95-34.55,21.57-39,18.19-4.87,34.28,5.74,39.15,23.94C211.32,389.58,202.45,405.91,184.26,410.78Z" class="cls-1"/><path d="M606.87,192.35c-15,4-24.79,11.7-29.22,26.61l-.45.12-3.55-13.26-34.82,9.33,11.39,42.48c-15.74-25.4-45.2-38-75.25-29.94a66.13,66.13,0,0,0-39.07,29.1,22,22,0,0,0,.54-5.28c0-.2,0-.38,0-.58h.12V239.35l.94.16a67.45,67.45,0,0,0,2.44-7.18c.59-2.56,1.64-5.4-.94-7.24-2.51-.63-4.62-1.48-6.77-1.63a45.61,45.61,0,0,0-7.16.62A109.35,109.35,0,0,1,411.34,208c1-6.24,2.07-12.11,2.79-18,.9-7.35,1.34-14.75,3.05-22,.31-1.32.76-3.5.91-4.84.92-7.61,1.79-15.23,2.68-22.93a1.13,1.13,0,0,1,.27-.61l2.79-3.13a1.86,1.86,0,0,0,.44-1.46c-.65-4.4-1.27-8.69-1.83-12.55l2-2.66c.6-2.59,1-4.41,1.46-6.23l.78.49c2.11-1.16,4.3-2.2,6.32-3.49a85.25,85.25,0,0,0,7-5c5.4-4.27,10.76-8.57,16-13A5.53,5.53,0,0,0,458.09,89c0-2.81-.13-5.84-2-8.17-4.69-5.69-8.86-11.87-15.23-16a16.87,16.87,0,0,1-3.45-3.64c-1.33-1.6-2.49-3.33-3.81-4.93-2-2.39-4.28-4.61-4.69-7.79A3.11,3.11,0,0,0,427.07,46a20.83,20.83,0,0,0-7.36-1.7c-4.38-.45-7.23-2.57-9.94-5.75.78-2.4,1-3.09,1.79-5.48,1.69-.41,3.3-.91,4.93-1.29,4.61-1.08,6.58-4.77,4.68-9.2a41.56,41.56,0,0,0-3-5.05C417.87,5.69,410.33.26,400.81,0a16.6,16.6,0,0,0-3.84.3c-3.81.65-6,3.41-7.57,6.32-2.94.62-6.1.12-8.09,2.63a1.92,1.92,0,0,0,0,2.31l3.93,5.32a24.15,24.15,0,0,0,2.46,14.63c-3.43,5.31-7.34,9.18-13.18,11-4.19,1.26-8.21,3-12.58,4.74a2,2,0,0,0-1.14,1.11c-1.22,2.9-2.58,5.91-3.65,9-1,2.92-1.57,6-2.43,9-1.07,3.7-1,7.62-2.86,11.23-2.6,5-2.67,12.09-5.46,17-4.79,8.44-7.19,17.79-11,26.6a67.85,67.85,0,0,0-3.79,10.18c-.63,2.54-1.79,4.53-3.95,5.44-4.59,1.94-6.81,5.8-8.74,9.92-1.36,2.92-2.29,6-.59,8.81a1.66,1.66,0,0,1,.2,1.25c-.44,1.76-.82,3.33-1.27,4.88-.5,1.73-1.1,3.3-1.67,5.14-.9,2.91-1.78,5.23-2.63,8.12a11.93,11.93,0,0,1-5.68,7A2.39,2.39,0,0,0,306,184a22.8,22.8,0,0,0,0,2.35c.23,2.59.92,5.18.76,7.73a44.74,44.74,0,0,1-1.69,8.67c-2.56,9.77-6.9,31-9.21,40.85a161.69,161.69,0,0,0-3.58,25.85,31.63,31.63,0,0,1-1.52,8.2l.56,0c.1-.3.22-.58.34-.86a33.67,33.67,0,0,1,2.15-6.09c1.14-2.71,2.64-5.18,6-12.81a151,151,0,0,0,9.35-29.61c.93-4.55,3.44-20.69,4-25.3.3-2.42-.39-5.58,1.59-7,2.81-1.94,6.36-3.08,8.35-6.07a2.93,2.93,0,0,0-.19-3.46l-2.91-3.5a2.43,2.43,0,0,1-.55-1.69c.29-4.85.51-9.06.84-13.27.41-5.05,1.23-8,3.84-15.61a.33.33,0,0,1,.34-.24c3.2,0,6.27-.9,9.1,1.23.12.1.18.27,0,.67l-1.21,3.12a1.84,1.84,0,0,0,2.21,2.45,3,3,0,0,0,1.44-1.24,11.62,11.62,0,0,0,1.54-3.9c.65-2.89-.67-5.35-1.89-7.51a1.16,1.16,0,0,1,0-1.07c1.41-2.88,2.71-5.52,4-8.13a3.86,3.86,0,0,1,.85-1.15,22.71,22.71,0,0,0,4.13-5c4-6.85,7.78-13.78,11.54-20.75a114.19,114.19,0,0,0,8.68-22.42,23.71,23.71,0,0,1,2-3.94c2.13,1,1.89,2.48,2,3.89.43,6.34.82,12.69,1.35,19,.27,3.07.77,6.11,1.3,10a3.58,3.58,0,0,1-.32,1.93c-1.8,4-1.37,9.26-1.34,14.43,0,.65,0,1.31,0,1.95.23,3.42-.58,6.66-1.32,10a70.42,70.42,0,0,0-1.92,13c-.3,10.27.07,20.56-.29,30.82-.19,5.29,1.91,8.76,5.85,11.93,6.06,4.88,11.77,10.18,17.87,15.52-.25,1.68-.19,3.43-.78,4.91a48.48,48.48,0,0,0-2.86,24.41,1.57,1.57,0,0,1,.1.28,12.6,12.6,0,0,1,.56,3.94s0,0,0,0a.09.09,0,0,1,0,0c0,.32,0,.65,0,1s.07.43.08.65a12.46,12.46,0,0,1,0,1.73c0,.12,0,.24-.05.36-.06.47-.12.94-.22,1.39,0,.17,0,.32,0,.48,0,1.39.08,2.77.07,4.16,0,.2,0,.39,0,.57a67.83,67.83,0,0,0-36-.05,66.8,66.8,0,0,0-44.1,38.7l-6.65-24.84C287.52,278.18,278.9,284,275,295.55c-.19.54-.36,1.09-.52,1.66L271.74,287l-37.16,9.95L268,421.59l37.29-10-18.42-68.73c-3.28-12.25,0-21.57,15.35-27.86a69.81,69.81,0,0,0,1.28,30.37,68.32,68.32,0,0,0,83.73,48.34c26.28-7,44.69-29.07,49.31-59.43l-38.18,10.23c-4,9.48-9.45,15.05-19.56,17.75-15.27,4.1-29.7-2.14-35.52-15.75l88.16-23.62a68.38,68.38,0,0,0,79.86,37.58c26.28-7.05,44.69-29.07,49.31-59.44l-38.18,10.23c-4,9.49-9.45,15.05-19.56,17.76-15.27,4.09-29.7-2.15-35.52-15.76l91.24-24.45,13.66,51,37.29-10L591.1,261.09c-4.51-16.85-.45-26.84,14.6-30.87,13.7-3.67,21.64,2.62,26.16,19.47l18.53,69.18,37.29-10-21.3-79.51C656.51,192.53,629.33,186.33,606.87,192.35ZM419,84.8c1.63-2.42,2.49-5.34,3.79-8a10.59,10.59,0,0,1,1.79-2c4.49,3.92,9.4,7.16,13,11.87A31.86,31.86,0,0,1,420.8,99.65l-3.5-2.49C417,92.66,416.46,88.63,419,84.8ZM389.31,186.7c-.89-4.83,1.09-9.09,2.79-13.43v16.78ZM337,321.24c-.63-14,8.89-25.25,22.36-28.86,14.38-3.85,27.89,1.67,34.24,13.7Zm88.37-31.63a69.5,69.5,0,0,0-14.92-16.52A1,1,0,0,0,411,272a12.39,12.39,0,0,0-.07-1.36,16.88,16.88,0,0,0-1.89-6.07,43.49,43.49,0,0,0-3.36-5.24c-.89-1.23-1.74-2.5-2.61-3.76a4.08,4.08,0,0,1-.65-.93,25.27,25.27,0,0,1-1.41-3,4.21,4.21,0,0,1-.19-1.55,6,6,0,0,1,1-3.84l.06-.07c.05-.11.09-.22.15-.33l0-.06c1-3.23,2-6.48,3-9.85l3.8,3c2.23-1.13,4.58-2.3,7.06-3.54l4.62,8.57c.52.7,1,1.46,1.43,2.2a15.81,15.81,0,0,1,1.67,2.23l0,0c-.09-.16,0-.08.15.15a9.61,9.61,0,0,1,2,2.45c.09.16.2.31.28.45a0,0,0,0,1,0,0c0,.11.07.23.12.35h0a3.27,3.27,0,0,1,.48,1.9c0,.12.06.23.07.35a4.55,4.55,0,0,1-.32,1.91c-.3,1.79-.6,3.58-.86,5.38a14.79,14.79,0,0,0,0,3.76,5.34,5.34,0,0,0,1.75,3.47,1.45,1.45,0,0,0,2.22,0,7.49,7.49,0,0,0,.7-.68A70.75,70.75,0,0,0,425.34,289.61ZM461,288c-.63-14,8.89-25.25,22.36-28.86,14.38-3.86,27.89,1.67,34.24,13.69Z" class="cls-1"/></g></g></svg>