<svg xmlns="http://www.w3.org/2000/svg" width="74" height="74" viewBox="0 0 74 74"><g id="Group_49" data-name="Group 49" transform="translate(0 0)"><g id="Group_18" data-name="Group 18" transform="translate(0 0)"><ellipse id="Ellipse_4" cx="35.917" cy="35.862" fill="#fff" data-name="Ellipse 4" rx="35.917" ry="35.862" transform="translate(1.083 1.138)"/><g id="Group_17" data-name="Group 17"><path id="Path_13" fill="#262627" d="M589.338,242.1a37,37,0,1,0,37.042,37.013A36.936,36.936,0,0,0,589.338,242.1Zm31.905,49.724c-.744-.434-1.366-.817-2.008-1.166-.825-.448-1.2-.312-1.423.579a13.169,13.169,0,0,1-3.684,6.388c-.692.667-.612,1.073.238,1.588.582.352,1.177.683,2.011,1.165l-5.73,5.745c-.49-.839-.861-1.477-1.236-2.113-.4-.678-.89-.833-1.471-.217a13.006,13.006,0,0,1-6.565,3.777c-.767.184-.888.666-.522,1.312s.748,1.289,1.262,2.172l-7.871,2.115c0-.96.01-1.636,0-2.312-.019-1.075-.3-1.307-1.3-1.029a13.326,13.326,0,0,1-7.285-.011c-.932-.26-1.231-.013-1.253.983-.015.678,0,1.357,0,2.354l-7.872-2.088c.5-.857.863-1.494,1.233-2.131.4-.681.3-1.179-.532-1.379a13.012,13.012,0,0,1-6.556-3.792c-.533-.564-1.022-.451-1.406.191s-.756,1.294-1.26,2.16l-5.752-5.731c.853-.492,1.5-.859,2.145-1.239.7-.415.76-.918.166-1.479a12.84,12.84,0,0,1-3.736-6.466c-.2-.825-.677-.959-1.368-.569-.623.352-1.239.719-2.144,1.246l-2.109-7.849c.992,0,1.7,0,2.41,0,.826,0,1.219-.331.961-1.216a13.045,13.045,0,0,1,.011-7.469c.242-.828-.131-1.148-.921-1.145-.713,0-1.426,0-2.457,0l2.1-7.867c.907.52,1.574.917,2.255,1.29.623.341,1.076.158,1.239-.529a13.109,13.109,0,0,1,3.837-6.638c.562-.533.4-1.031-.244-1.4l-2.29-1.328,5.822-5.777c.57.984.943,1.653,1.34,2.307.388.638.88.737,1.412.175a12.9,12.9,0,0,1,6.558-3.784c.733-.172.948-.62.567-1.3-.368-.652-.745-1.3-1.262-2.2l7.859-2.133c0,1.033-.005,1.808,0,2.583.006.709.375,1.029,1.057.83a13.4,13.4,0,0,1,7.68-.008c.744.218,1.1-.128,1.1-.882s0-1.488,0-2.341c.79.135,1.5.2,2.181.384,1.844.488,3.676,1.024,5.663,1.583l-1.227,2.14c-.412.72-.193,1.163.6,1.351a12.821,12.821,0,0,1,6.471,3.738c.573.6,1.069.5,1.475-.19.363-.616.714-1.239,1.221-2.119l5.76,5.716c-.835.487-1.465.861-2.1,1.224-.687.393-.853.893-.245,1.467a13,13,0,0,1,3.788,6.551c.181.753.641.918,1.3.548s1.3-.745,2.192-1.263l2.13,7.871c-1.063,0-1.84-.015-2.617,0-.7.017-1,.381-.8,1.075a13.32,13.32,0,0,1-.009,7.669c-.207.7.14,1.05.82,1.073.777.027,1.555.006,2.445.006C623.281,286.7,622.01,289.109,621.243,291.82Z" data-name="Path 13" transform="translate(-552.38 -242.095)"/><path id="Path_14" fill="#262627" d="M617.218,280.576a26.366,26.366,0,1,0,26.265,24.02A26.354,26.354,0,0,0,617.218,280.576Zm-.1,49.98a23.615,23.615,0,1,1,23.745-23.622A23.537,23.537,0,0,1,617.113,330.556Z" data-name="Path 14" transform="translate(-580.178 -269.943)"/></g></g><text id="_1" fill="#262627" data-name="1" font-family="Montserrat-SemiBold, Montserrat" font-size="27" font-weight="600" transform="translate(30.887 46.886)"><tspan x="0" y="0">1</tspan></text></g></svg>